<?xml version="1.0" encoding="UTF-8" standalone="no"?>
<!DOCTYPE svg PUBLIC "-//W3C//DTD SVG 1.1//EN" "http://www.w3.org/Graphics/SVG/1.1/DTD/svg11.dtd">
<svg width="100%" height="100%" viewBox="395 900 3350 2000" version="1.1" xmlns="http://www.w3.org/2000/svg" xmlns:xlink="http://www.w3.org/1999/xlink" xml:space="preserve" xmlns:serif="http://www.serif.com/" style="fill-rule:evenodd;clip-rule:evenodd;stroke-linejoin:round;stroke-miterlimit:2;">
    <g id="Layer-1" serif:id="Layer 1" transform="matrix(4.16667,0,0,4.16667,0,0)">
        <g transform="matrix(1,0,0,1,451.516,253.138)">
            <path d="M0,83.504L0,6.345C0,-2.683 -8.075,-10 -18.037,-10L-25.046,-10C-31.141,-10 -36.08,-5.522 -36.08,-0.002L-36.08,83.504C-36.08,89.026 -31.141,93.504 -25.046,93.504L-11.033,93.504C-4.94,93.504 0,89.026 0,83.504" style="fill:rgb(255,141,187);fill-rule:nonzero;"/>
        </g>
        <g transform="matrix(1,0,0,1,562.755,316.01)">
            <path d="M0,50.136L0,14.949C0,5.003 -3.947,-4.693 -11.295,-12.793L-19.457,-21.793C-24.631,-27.497 -36.08,-24.622 -36.08,-17.617L-36.08,64.818C-36.08,66.803 -37.049,77.633 -25.308,74.358L-7.594,62.817C-2.783,59.69 0,55.042 0,50.136" style="fill:rgb(255,141,187);fill-rule:nonzero;"/>
        </g>
        <g transform="matrix(1,0,0,1,426.47,558.116)">
            <path d="M0,-194.164C-6.095,-194.164 -11.034,-189.689 -11.034,-184.166L-11.034,-9.997C-11.034,-4.476 -6.095,0 0,0L14.013,0C20.106,0 25.046,-4.476 25.046,-9.997L25.046,-184.166C25.046,-189.689 20.106,-194.164 14.013,-194.164L0,-194.164Z" style="fill:rgb(237,30,121);fill-rule:nonzero;"/>
        </g>
        <g transform="matrix(1,0,0,1,507.136,484.522)">
            <path d="M0,-74.768L0,50.901C0,63.433 -11.213,73.594 -25.045,73.594C-31.14,73.594 -36.079,69.119 -36.079,63.597L-36.079,-74.768C-36.079,-80.29 -31.14,-84.765 -25.045,-84.765L-11.035,-84.765C-4.94,-84.765 0,-80.29 0,-74.768Z" style="fill:rgb(237,30,121);fill-rule:nonzero;"/>
        </g>
        <g transform="matrix(1,0,0,1,507.136,484.522)">
            <path d="M0,-74.768L0,50.901C0,63.433 -11.213,73.594 -25.045,73.594C-31.14,73.594 -36.079,69.119 -36.079,63.597L-36.079,-74.768C-36.079,-80.29 -31.14,-84.765 -25.045,-84.765L-11.035,-84.765C-4.94,-84.765 0,-80.29 0,-74.768Z" style="fill:rgb(237,30,121);fill-rule:nonzero;"/>
        </g>
        <g transform="matrix(1,0,0,1,526.675,418.571)">
            <path d="M0,109.264L0,4.803C0,-4.459 10.597,-9.723 17.979,-4.13L29.294,4.445C33.623,7.725 36.08,12.322 36.08,17.134L36.08,93.197C36.08,100.508 31.422,107.297 23.77,111.139L14.456,115.816C8.142,118.987 0,115.295 0,109.264" style="fill:rgb(237,30,121);fill-rule:nonzero;"/>
        </g>
        <g transform="matrix(1,0,0,1,395.572,254.738)">
            <path d="M0,183.55L0,-0.003C0,-5.525 -4.94,-10 -11.034,-10L-25.046,-10C-31.141,-10 -36.08,-5.525 -36.08,-0.003L-36.08,183.55C-36.08,189.072 -31.141,193.55 -25.046,193.55L-11.034,193.55C-4.94,193.55 0,189.072 0,183.55" style="fill:rgb(237,30,121);fill-rule:nonzero;"/>
        </g>
        <g transform="matrix(1,0,0,1,359.815,476.859)">
            <path d="M0,71.259L0,0.002C0,-5.52 4.939,-9.998 11.034,-9.998L25.045,-9.998C31.14,-9.998 36.079,-5.52 36.079,0.002L36.079,71.259C36.079,76.781 31.14,81.257 25.045,81.257L11.034,81.257C4.939,81.257 0,76.781 0,71.259" style="fill:rgb(237,30,121);fill-rule:nonzero;"/>
        </g>
        <g transform="matrix(1,0,0,1,507.136,297.536)">
            <path d="M0,74.765L0,-20.005C0,-32.539 -11.213,-42.7 -25.045,-42.7C-31.14,-42.7 -36.079,-38.225 -36.079,-32.703L-36.079,74.765C-36.079,80.288 -31.14,84.765 -25.045,84.765L-11.035,84.765C-4.94,84.765 0,80.288 0,74.765Z" style="fill:rgb(255,141,187);fill-rule:nonzero;"/>
        </g>
        <g transform="matrix(1,0,0,1,115.583,643.221)">
            <path d="M0,-28.047C2.557,-28.047 4.441,-27.445 5.651,-26.243C6.859,-25.042 7.463,-23.464 7.463,-21.517L7.463,-18.712C7.463,-16.52 6.844,-14.831 5.607,-13.642C4.371,-12.454 2.53,-11.86 0.083,-11.86L-15.944,-11.86C-17.405,-11.86 -18.135,-11.098 -18.135,-9.576L-18.135,-6.17C-18.135,-5.61 -17.855,-5.33 -17.292,-5.33L6.452,-5.33C7.098,-5.33 7.421,-5.035 7.421,-4.448L7.421,-0.881C7.421,-0.295 7.098,0 6.452,0L-20.456,0C-21.89,0 -22.9,-0.273 -23.492,-0.82C-24.081,-1.368 -24.378,-2.23 -24.378,-3.406L-24.378,-9.576C-24.378,-11.792 -23.76,-13.496 -22.523,-14.684C-21.286,-15.873 -19.443,-16.467 -16.998,-16.467L-0.972,-16.467C0.492,-16.467 1.222,-17.214 1.222,-18.712L1.222,-20.433C1.222,-21.13 1.054,-21.682 0.716,-22.096C0.377,-22.51 -0.197,-22.717 -1.013,-22.717L-22.353,-22.717C-22.971,-22.717 -23.28,-23.012 -23.28,-23.598L-23.28,-27.166C-23.28,-27.753 -22.971,-28.047 -22.353,-28.047L0,-28.047Z" style="fill:rgb(237,30,121);fill-rule:nonzero;"/>
        </g>
        <g transform="matrix(1,0,0,1,137.679,627.196)">
            <path d="M0,4.005L0,9.975C0,10.323 0.183,10.496 0.55,10.496L17.84,10.496C18.965,10.496 19.766,10.304 20.244,9.917C20.721,9.53 20.962,8.909 20.962,8.052L20.962,6.53C20.962,5.702 20.701,5.074 20.18,4.648C19.659,4.219 18.697,4.005 17.292,4.005L0,4.005ZM0,-0.361L17.292,-0.361C18.697,-0.361 19.654,-0.563 20.161,-0.962C20.665,-1.364 20.918,-1.951 20.918,-2.725L20.918,-4.089C20.918,-4.916 20.672,-5.523 20.18,-5.91C19.688,-6.297 18.895,-6.492 17.799,-6.492L0.55,-6.492C0.183,-6.492 0,-6.319 0,-5.971L0,-0.361ZM19.106,-12.021C22.001,-12.021 24.062,-11.474 25.284,-10.378C26.506,-9.282 27.117,-7.626 27.117,-5.411L27.117,-3.487C27.117,-1.242 26.219,0.452 24.419,1.602C26.36,2.671 27.329,4.392 27.329,6.771L27.329,9.094C27.329,10.163 27.203,11.125 26.949,11.979C26.696,12.834 26.282,13.562 25.705,14.163C25.128,14.765 24.363,15.225 23.406,15.547C22.452,15.865 21.271,16.026 19.864,16.026L-5.186,16.026C-6.029,16.026 -6.452,15.624 -6.452,14.823L-6.452,-10.819C-6.452,-11.62 -6.029,-12.021 -5.186,-12.021L19.106,-12.021Z" style="fill:rgb(237,30,121);fill-rule:nonzero;"/>
        </g>
        <g transform="matrix(1,0,0,1,200.981,625.512)">
            <path d="M0,7.371L14.507,7.371L7.801,-4.368C7.689,-4.555 7.534,-4.648 7.339,-4.648L7.085,-4.648C6.888,-4.648 6.732,-4.555 6.621,-4.368L0,7.371ZM8.181,-10.338C9.25,-10.338 10.148,-10.131 10.881,-9.717C11.612,-9.303 12.328,-8.495 13.032,-7.292L26.991,16.789C27.132,17.054 27.166,17.276 27.095,17.449C27.025,17.624 26.823,17.709 26.484,17.709L21.13,17.709C20.65,17.709 20.326,17.537 20.158,17.188L17.164,12.019L-2.656,12.019L-5.566,17.188C-5.763,17.537 -6.087,17.709 -6.538,17.709L-12.019,17.709C-12.386,17.709 -12.603,17.624 -12.673,17.449C-12.744,17.276 -12.708,17.054 -12.566,16.789L1.266,-7.292C1.967,-8.495 2.657,-9.303 3.331,-9.717C4.005,-10.131 4.794,-10.338 5.693,-10.338L8.181,-10.338Z" style="fill-rule:nonzero;"/>
        </g>
        <g transform="matrix(1,0,0,1,263.523,643.221)">
            <path d="M0,-28.047C0.619,-28.047 0.928,-27.753 0.928,-27.166L0.928,-23.238C0.928,-22.625 0.619,-22.318 0,-22.318L-18.768,-22.318C-19.863,-22.318 -20.769,-22.23 -21.488,-22.057C-22.204,-21.882 -22.773,-21.589 -23.194,-21.176C-23.616,-20.762 -23.92,-20.207 -24.103,-19.513C-24.285,-18.819 -24.375,-17.935 -24.375,-16.868L-24.375,-11.178C-24.375,-10.11 -24.285,-9.22 -24.103,-8.514C-23.92,-7.806 -23.616,-7.246 -23.194,-6.832C-22.773,-6.416 -22.204,-6.123 -21.488,-5.95C-20.769,-5.775 -19.863,-5.69 -18.768,-5.69L0,-5.69C0.619,-5.69 0.928,-5.395 0.928,-4.809L0.928,-0.881C0.928,-0.295 0.619,0 0,0L-19.019,0C-21.156,0 -22.97,-0.187 -24.46,-0.56C-25.951,-0.935 -27.166,-1.544 -28.108,-2.383C-29.05,-3.226 -29.739,-4.319 -30.175,-5.668C-30.611,-7.017 -30.828,-8.653 -30.828,-10.577L-30.828,-17.47C-30.828,-19.394 -30.611,-21.023 -30.175,-22.357C-29.739,-23.693 -29.05,-24.782 -28.108,-25.622C-27.166,-26.464 -25.951,-27.078 -24.46,-27.465C-22.97,-27.852 -21.156,-28.047 -19.019,-28.047L0,-28.047Z" style="fill-rule:nonzero;"/>
        </g>
        <g transform="matrix(1,0,0,1,302.617,643.221)">
            <path d="M0,-28.047C0.619,-28.047 0.928,-27.753 0.928,-27.166L0.928,-23.238C0.928,-22.625 0.619,-22.318 0,-22.318L-18.768,-22.318C-19.863,-22.318 -20.769,-22.23 -21.487,-22.057C-22.204,-21.882 -22.773,-21.589 -23.194,-21.176C-23.616,-20.762 -23.92,-20.207 -24.103,-19.513C-24.285,-18.819 -24.375,-17.935 -24.375,-16.868L-24.375,-11.178C-24.375,-10.11 -24.285,-9.22 -24.103,-8.514C-23.92,-7.806 -23.616,-7.246 -23.194,-6.832C-22.773,-6.416 -22.204,-6.123 -21.487,-5.95C-20.769,-5.775 -19.863,-5.69 -18.768,-5.69L0,-5.69C0.619,-5.69 0.928,-5.395 0.928,-4.809L0.928,-0.881C0.928,-0.295 0.619,0 0,0L-19.019,0C-21.156,0 -22.97,-0.187 -24.46,-0.56C-25.951,-0.935 -27.166,-1.544 -28.108,-2.383C-29.05,-3.226 -29.739,-4.319 -30.175,-5.668C-30.611,-7.017 -30.828,-8.653 -30.828,-10.577L-30.828,-17.47C-30.828,-19.394 -30.611,-21.023 -30.175,-22.357C-29.739,-23.693 -29.05,-24.782 -28.108,-25.622C-27.166,-26.464 -25.951,-27.078 -24.46,-27.465C-22.97,-27.852 -21.156,-28.047 -19.019,-28.047L0,-28.047Z" style="fill-rule:nonzero;"/>
        </g>
        <g transform="matrix(1,0,0,1,317.336,626.193)">
            <path d="M0,6.011C0,7.053 0.09,7.928 0.272,8.636C0.455,9.342 0.759,9.905 1.181,10.319C1.602,10.732 2.172,11.025 2.888,11.2C3.606,11.373 4.512,11.46 5.607,11.46L18.135,11.46C19.23,11.46 20.136,11.373 20.854,11.2C21.57,11.025 22.14,10.732 22.562,10.319C22.985,9.905 23.285,9.342 23.47,8.636C23.652,7.928 23.742,7.053 23.742,6.011L23.742,-0.001C23.742,-1.043 23.652,-1.917 23.47,-2.625C23.285,-3.331 22.985,-3.891 22.562,-4.308C22.14,-4.722 21.57,-5.014 20.854,-5.189C20.136,-5.362 19.23,-5.45 18.135,-5.45L5.607,-5.45C4.512,-5.45 3.606,-5.362 2.888,-5.189C2.172,-5.014 1.602,-4.722 1.181,-4.308C0.759,-3.891 0.455,-3.331 0.272,-2.625C0.09,-1.917 0,-1.043 0,-0.001L0,6.011ZM18.388,-11.018C20.523,-11.018 22.345,-10.823 23.849,-10.436C25.352,-10.049 26.574,-9.436 27.516,-8.593C28.458,-7.753 29.14,-6.665 29.564,-5.328C29.985,-3.994 30.195,-2.365 30.195,-0.441L30.195,6.452C30.195,8.375 29.985,10.011 29.564,11.361C29.14,12.71 28.458,13.803 27.516,14.645C26.574,15.485 25.352,16.094 23.849,16.469C22.345,16.842 20.523,17.029 18.388,17.029L5.356,17.029C3.219,17.029 1.405,16.842 -0.085,16.469C-1.576,16.094 -2.791,15.485 -3.733,14.645C-4.675,13.803 -5.364,12.71 -5.8,11.361C-6.236,10.011 -6.453,8.375 -6.453,6.452L-6.453,-0.441C-6.453,-2.365 -6.236,-3.994 -5.8,-5.328C-5.364,-6.665 -4.675,-7.753 -3.733,-8.593C-2.791,-9.436 -1.576,-10.049 -0.085,-10.436C1.405,-10.823 3.219,-11.018 5.356,-11.018L18.388,-11.018Z" style="fill-rule:nonzero;"/>
        </g>
        <g transform="matrix(1,0,0,1,361.364,643.221)">
            <path d="M0,-28.047C0.618,-28.047 0.927,-27.753 0.927,-27.166L0.927,-11.178C0.927,-10.11 1.02,-9.22 1.203,-8.514C1.385,-7.806 1.687,-7.246 2.108,-6.832C2.53,-6.416 3.099,-6.123 3.818,-5.95C4.534,-5.775 5.442,-5.69 6.538,-5.69L18.22,-5.69C19.315,-5.69 20.221,-5.775 20.939,-5.95C21.655,-6.123 22.225,-6.416 22.646,-6.832C23.07,-7.246 23.365,-7.806 23.533,-8.514C23.701,-9.22 23.786,-10.11 23.786,-11.178L23.786,-27.166C23.786,-27.753 24.095,-28.047 24.714,-28.047L29.311,-28.047C29.929,-28.047 30.238,-27.753 30.238,-27.166L30.238,-10.577C30.238,-8.653 30.026,-7.017 29.605,-5.668C29.184,-4.319 28.502,-3.226 27.56,-2.383C26.618,-1.544 25.396,-0.935 23.891,-0.56C22.386,-0.187 20.567,0 18.429,0L6.284,0C4.146,0 2.335,-0.187 0.845,-0.56C-0.648,-0.935 -1.863,-1.544 -2.805,-2.383C-3.748,-3.226 -4.434,-4.319 -4.87,-5.668C-5.306,-7.017 -5.525,-8.653 -5.525,-10.577L-5.525,-27.166C-5.525,-27.753 -5.201,-28.047 -4.553,-28.047L0,-28.047Z" style="fill-rule:nonzero;"/>
        </g>
        <g transform="matrix(1,0,0,1,407.796,643.221)">
            <path d="M0,-28.047C0.675,-28.047 1.237,-28.02 1.687,-27.966C2.136,-27.913 2.53,-27.798 2.868,-27.626C3.205,-27.453 3.528,-27.212 3.837,-26.905C4.146,-26.598 4.498,-26.189 4.892,-25.683L20.58,-6.13C20.692,-5.943 20.876,-5.851 21.13,-5.851L21.507,-5.851C21.734,-5.851 21.846,-5.982 21.846,-6.25L21.846,-27.166C21.846,-27.753 22.155,-28.047 22.773,-28.047L27.203,-28.047C27.821,-28.047 28.13,-27.753 28.13,-27.166L28.13,-4.166C28.13,-2.537 27.821,-1.436 27.203,-0.861C26.584,-0.287 25.627,0 24.334,0L20.706,0C20.061,0 19.518,-0.026 19.082,-0.08C18.646,-0.133 18.262,-0.241 17.923,-0.401C17.587,-0.56 17.256,-0.794 16.932,-1.103C16.608,-1.409 16.236,-1.828 15.814,-2.364L0.085,-21.916C-0.085,-22.104 -0.268,-22.196 -0.465,-22.196L-0.842,-22.196C-1.069,-22.196 -1.181,-22.062 -1.181,-21.797L-1.181,-0.881C-1.181,-0.295 -1.49,0 -2.108,0L-6.538,0C-7.183,0 -7.506,-0.295 -7.506,-0.881L-7.506,-23.881C-7.506,-25.51 -7.197,-26.61 -6.579,-27.185C-5.96,-27.76 -5.006,-28.047 -3.71,-28.047L0,-28.047Z" style="fill-rule:nonzero;"/>
        </g>
        <g transform="matrix(1,0,0,1,476.791,643.221)">
            <path d="M0,-28.047C0.647,-28.047 0.972,-27.753 0.972,-27.166L0.972,-23.238C0.972,-22.625 0.647,-22.318 0,-22.318L-13.241,-22.318L-13.241,-0.881C-13.241,-0.295 -13.553,0 -14.168,0L-18.766,0C-19.384,0 -19.693,-0.295 -19.693,-0.881L-19.693,-22.318L-32.937,-22.318C-33.584,-22.318 -33.906,-22.625 -33.906,-23.238L-33.906,-27.166C-33.906,-27.753 -33.584,-28.047 -32.937,-28.047L0,-28.047Z" style="fill-rule:nonzero;"/>
        </g>
        <g transform="matrix(1,0,0,1,490.202,643.221)">
            <path d="M0,-28.047C0.619,-28.047 0.928,-27.753 0.928,-27.166L0.928,-0.881C0.928,-0.295 0.619,0 0,0L-4.556,0C-5.201,0 -5.524,-0.295 -5.524,-0.881L-5.524,-27.166C-5.524,-27.753 -5.201,-28.047 -4.556,-28.047L0,-28.047Z" style="fill-rule:nonzero;"/>
        </g>
        <g transform="matrix(1,0,0,1,507.407,643.221)">
            <path d="M0,-28.047C0.677,-28.047 1.237,-28.02 1.687,-27.966C2.138,-27.913 2.532,-27.798 2.868,-27.626C3.207,-27.453 3.528,-27.212 3.84,-26.905C4.149,-26.598 4.5,-26.189 4.894,-25.683L20.582,-6.13C20.694,-5.943 20.876,-5.851 21.13,-5.851L21.509,-5.851C21.733,-5.851 21.846,-5.982 21.846,-6.25L21.846,-27.166C21.846,-27.753 22.155,-28.047 22.775,-28.047L27.202,-28.047C27.821,-28.047 28.13,-27.753 28.13,-27.166L28.13,-4.166C28.13,-2.537 27.821,-1.436 27.202,-0.861C26.584,-0.287 25.627,0 24.334,0L20.708,0C20.061,0 19.52,-0.026 19.084,-0.08C18.648,-0.133 18.261,-0.241 17.925,-0.401C17.587,-0.56 17.256,-0.794 16.935,-1.103C16.61,-1.409 16.238,-1.828 15.817,-2.364L0.085,-21.916C-0.083,-22.104 -0.266,-22.196 -0.463,-22.196L-0.843,-22.196C-1.069,-22.196 -1.181,-22.062 -1.181,-21.797L-1.181,-0.881C-1.181,-0.295 -1.49,0 -2.109,0L-6.535,0C-7.183,0 -7.507,-0.295 -7.507,-0.881L-7.507,-23.881C-7.507,-25.51 -7.198,-26.61 -6.579,-27.185C-5.961,-27.76 -5.004,-28.047 -3.711,-28.047L0,-28.047Z" style="fill-rule:nonzero;"/>
        </g>
        <g transform="matrix(1,0,0,1,577.164,643.221)">
            <path d="M0,-28.047C0.616,-28.047 0.928,-27.753 0.928,-27.166L0.928,-23.238C0.928,-22.625 0.616,-22.318 0,-22.318L-21.13,-22.318C-22.226,-22.318 -23.134,-22.23 -23.85,-22.057C-24.568,-21.882 -25.135,-21.589 -25.559,-21.176C-25.98,-20.762 -26.282,-20.207 -26.464,-19.513C-26.647,-18.819 -26.74,-17.935 -26.74,-16.868L-26.74,-11.098C-26.74,-10.029 -26.647,-9.14 -26.464,-8.434C-26.282,-7.726 -25.98,-7.166 -25.559,-6.752C-25.135,-6.338 -24.568,-6.043 -23.85,-5.87C-23.134,-5.695 -22.226,-5.61 -21.13,-5.61L-7.212,-5.61C-6.481,-5.61 -5.948,-5.79 -5.61,-6.15C-5.274,-6.51 -5.104,-7.146 -5.104,-8.054L-5.104,-11.3C-5.104,-11.646 -5.274,-11.818 -5.61,-11.818L-17.967,-11.818C-18.585,-11.818 -18.895,-12.125 -18.895,-12.741L-18.895,-15.746C-18.895,-16.359 -18.585,-16.669 -17.967,-16.669L-0.38,-16.669C0.463,-16.669 0.884,-16.267 0.884,-15.466L0.884,-6.13C0.884,-3.886 0.434,-2.303 -0.465,-1.383C-1.366,-0.46 -2.659,0 -4.344,0L-21.383,0C-23.521,0 -25.333,-0.187 -26.822,-0.56C-28.312,-0.935 -29.53,-1.544 -30.47,-2.383C-31.412,-3.226 -32.101,-4.319 -32.537,-5.668C-32.973,-7.017 -33.192,-8.653 -33.192,-10.577L-33.192,-17.47C-33.192,-19.394 -32.973,-21.023 -32.537,-22.357C-32.101,-23.693 -31.412,-24.782 -30.47,-25.622C-29.53,-26.464 -28.312,-27.078 -26.822,-27.465C-25.333,-27.852 -23.521,-28.047 -21.383,-28.047L0,-28.047Z" style="fill-rule:nonzero;"/>
        </g>
        <g transform="matrix(1,0,0,1,634.308,643.221)">
            <path d="M0,-28.047C0.616,-28.047 0.928,-27.753 0.928,-27.166L0.928,-23.238C0.928,-22.625 0.616,-22.318 0,-22.318L-18.768,-22.318C-19.864,-22.318 -20.772,-22.23 -21.488,-22.057C-22.206,-21.882 -22.773,-21.589 -23.197,-21.176C-23.618,-20.762 -23.92,-20.207 -24.103,-19.513C-24.285,-18.819 -24.378,-17.935 -24.378,-16.868L-24.378,-11.178C-24.378,-10.11 -24.285,-9.22 -24.103,-8.514C-23.92,-7.806 -23.618,-7.246 -23.197,-6.832C-22.773,-6.416 -22.206,-6.123 -21.488,-5.95C-20.772,-5.775 -19.864,-5.69 -18.768,-5.69L0,-5.69C0.616,-5.69 0.928,-5.395 0.928,-4.809L0.928,-0.881C0.928,-0.295 0.616,0 0,0L-19.021,0C-21.159,0 -22.971,-0.187 -24.46,-0.56C-25.951,-0.935 -27.168,-1.544 -28.108,-2.383C-29.05,-3.226 -29.739,-4.319 -30.175,-5.668C-30.611,-7.017 -30.83,-8.653 -30.83,-10.577L-30.83,-17.47C-30.83,-19.394 -30.611,-21.023 -30.175,-22.357C-29.739,-23.693 -29.05,-24.782 -28.108,-25.622C-27.168,-26.464 -25.951,-27.078 -24.46,-27.465C-22.971,-27.852 -21.159,-28.047 -19.021,-28.047L0,-28.047Z" style="fill-rule:nonzero;"/>
        </g>
        <g transform="matrix(1,0,0,1,649.024,626.193)">
            <path d="M0,6.011C0,7.053 0.093,7.928 0.275,8.636C0.458,9.342 0.76,9.905 1.181,10.319C1.604,10.732 2.172,11.025 2.89,11.2C3.606,11.373 4.514,11.46 5.61,11.46L18.135,11.46C19.233,11.46 20.139,11.373 20.855,11.2C21.573,11.025 22.143,10.732 22.564,10.319C22.985,9.905 23.287,9.342 23.47,8.636C23.652,7.928 23.745,7.053 23.745,6.011L23.745,-0.001C23.745,-1.043 23.652,-1.917 23.47,-2.625C23.287,-3.331 22.985,-3.891 22.564,-4.308C22.143,-4.722 21.573,-5.014 20.855,-5.189C20.139,-5.362 19.233,-5.45 18.135,-5.45L5.61,-5.45C4.514,-5.45 3.606,-5.362 2.89,-5.189C2.172,-5.014 1.604,-4.722 1.181,-4.308C0.76,-3.891 0.458,-3.331 0.275,-2.625C0.093,-1.917 0,-1.043 0,-0.001L0,6.011ZM18.388,-11.018C20.523,-11.018 22.345,-10.823 23.85,-10.436C25.354,-10.049 26.577,-9.436 27.519,-8.593C28.461,-7.753 29.143,-6.665 29.564,-5.328C29.985,-3.994 30.197,-2.365 30.197,-0.441L30.197,6.452C30.197,8.375 29.985,10.011 29.564,11.361C29.143,12.71 28.461,13.803 27.519,14.645C26.577,15.485 25.354,16.094 23.85,16.469C22.345,16.842 20.523,17.029 18.388,17.029L5.357,17.029C3.219,17.029 1.407,16.842 -0.083,16.469C-1.573,16.094 -2.79,15.485 -3.73,14.645C-4.672,13.803 -5.361,12.71 -5.797,11.361C-6.233,10.011 -6.452,8.375 -6.452,6.452L-6.452,-0.441C-6.452,-2.365 -6.233,-3.994 -5.797,-5.328C-5.361,-6.665 -4.672,-7.753 -3.73,-8.593C-2.79,-9.436 -1.573,-10.049 -0.083,-10.436C1.407,-10.823 3.219,-11.018 5.357,-11.018L18.388,-11.018Z" style="fill-rule:nonzero;"/>
        </g>
        <g transform="matrix(1,0,0,1,691.703,643.222)">
            <path d="M0,-5.61C0.618,-5.61 0.927,-5.316 0.927,-4.729L0.927,-0.881C0.927,-0.295 0.618,0 0,0L-4.132,0C-4.78,0 -5.101,-0.295 -5.101,-0.881L-5.101,-4.729C-5.101,-5.316 -4.78,-5.61 -4.132,-5.61L0,-5.61Z" style="fill-rule:nonzero;"/>
        </g>
        <g transform="matrix(1,0,0,1,706.126,650.112)">
            <path d="M0,-12.5C0.619,-12.5 0.928,-12.206 0.928,-11.619L0.928,-8.212C0.928,-7.864 0.913,-7.572 0.886,-7.331C0.857,-7.09 0.772,-6.756 0.633,-6.33L-0.928,-0.881C-1.04,-0.533 -1.173,-0.299 -1.329,-0.18C-1.483,-0.058 -1.729,0 -2.067,0L-3.754,0C-4.429,0 -4.697,-0.292 -4.556,-0.881L-3.416,-6.851L-4.134,-6.851C-4.779,-6.851 -5.104,-7.144 -5.104,-7.732L-5.104,-11.619C-5.104,-12.206 -4.779,-12.5 -4.134,-12.5L0,-12.5Z" style="fill-rule:nonzero;"/>
        </g>
        <g transform="matrix(1,0,0,1,720.212,643.221)">
            <path d="M0,-28.047C0.618,-28.047 0.928,-27.753 0.928,-27.166L0.928,-11.178C0.928,-10.11 1.02,-9.22 1.203,-8.514C1.385,-7.806 1.687,-7.246 2.108,-6.832C2.53,-6.416 3.1,-6.123 3.818,-5.95C4.534,-5.775 5.442,-5.69 6.538,-5.69L23.618,-5.69C24.237,-5.69 24.546,-5.395 24.546,-4.809L24.546,-0.881C24.546,-0.295 24.237,0 23.618,0L6.284,0C4.146,0 2.335,-0.187 0.845,-0.56C-0.648,-0.935 -1.863,-1.544 -2.805,-2.383C-3.748,-3.226 -4.434,-4.319 -4.87,-5.668C-5.306,-7.017 -5.525,-8.653 -5.525,-10.577L-5.525,-27.166C-5.525,-27.753 -5.201,-28.047 -4.553,-28.047L0,-28.047Z" style="fill-rule:nonzero;"/>
        </g>
        <g transform="matrix(1,0,0,1,775.798,643.221)">
            <path d="M0,-28.047C0.646,-28.047 0.969,-27.753 0.969,-27.166L0.969,-23.238C0.969,-22.625 0.646,-22.318 0,-22.318L-13.243,-22.318L-13.243,-0.881C-13.243,-0.295 -13.552,0 -14.171,0L-18.768,0C-19.386,0 -19.695,-0.295 -19.695,-0.881L-19.695,-22.318L-32.939,-22.318C-33.584,-22.318 -33.908,-22.625 -33.908,-23.238L-33.908,-27.166C-33.908,-27.753 -33.584,-28.047 -32.939,-28.047L0,-28.047Z" style="fill-rule:nonzero;"/>
        </g>
        <g transform="matrix(1,0,0,1,790.134,621.264)">
            <path d="M0,15.868C0,16.214 0.183,16.389 0.55,16.389L14.383,16.389C15.62,16.389 16.66,16.282 17.502,16.068C18.347,15.853 19.029,15.508 19.547,15.026C20.068,14.546 20.441,13.903 20.665,13.102C20.892,12.301 21.003,11.312 21.003,10.139L21.003,5.729C21.003,4.556 20.892,3.567 20.665,2.766C20.441,1.965 20.068,1.322 19.547,0.843C19.029,0.361 18.347,0.015 17.502,-0.199C16.66,-0.414 15.62,-0.521 14.383,-0.521L0.55,-0.521C0.183,-0.521 0,-0.334 0,0.041L0,15.868ZM14.551,-6.09C16.828,-6.09 18.783,-5.868 20.414,-5.427C22.043,-4.986 23.38,-4.307 24.419,-3.384C25.459,-2.464 26.226,-1.288 26.718,0.141C27.21,1.571 27.456,3.261 27.456,5.211L27.456,10.658C27.456,12.608 27.21,14.298 26.718,15.727C26.226,17.156 25.459,18.332 24.419,19.253C23.38,20.176 22.043,20.855 20.414,21.296C18.783,21.736 16.828,21.958 14.551,21.958L-5.186,21.958C-6.028,21.958 -6.452,21.556 -6.452,20.755L-6.452,-4.887C-6.452,-5.688 -6.028,-6.09 -5.186,-6.09L14.551,-6.09Z" style="fill-rule:nonzero;"/>
        </g>
        <g transform="matrix(1,0,0,1,830.115,643.222)">
            <path d="M0,-5.61C0.618,-5.61 0.928,-5.316 0.928,-4.729L0.928,-0.881C0.928,-0.295 0.618,0 0,0L-4.135,0C-4.78,0 -5.104,-0.295 -5.104,-0.881L-5.104,-4.729C-5.104,-5.316 -4.78,-5.61 -4.135,-5.61L0,-5.61Z" style="fill-rule:nonzero;"/>
        </g>
    </g>
</svg>
