<?xml version="1.0" encoding="UTF-8" standalone="no"?>
<!DOCTYPE svg PUBLIC "-//W3C//DTD SVG 1.1//EN" "http://www.w3.org/Graphics/SVG/1.1/DTD/svg11.dtd">
<svg width="100%" height="100%" viewBox="0 0 180 180" version="1.1" xmlns="http://www.w3.org/2000/svg" xmlns:xlink="http://www.w3.org/1999/xlink" xml:space="preserve" xmlns:serif="http://www.serif.com/" style="fill-rule:evenodd;clip-rule:evenodd;stroke-linejoin:round;stroke-miterlimit:2;">
    <g transform="matrix(0.539412,0,0,0.539412,84.6803,9.40863)">
        <path d="M0,83.504L0,6.345C0,-2.683 -8.075,-10 -18.037,-10L-25.046,-10C-31.141,-10 -36.08,-5.522 -36.08,-0.002L-36.08,83.504C-36.08,89.026 -31.141,93.504 -25.046,93.504L-11.033,93.504C-4.94,93.504 0,89.026 0,83.504" style="fill:rgb(255,141,187);fill-rule:nonzero;"/>
    </g>
    <g transform="matrix(0.539412,0,0,0.539412,144.684,43.3225)">
        <path d="M0,50.136L0,14.949C0,5.003 -3.947,-4.693 -11.295,-12.793L-19.457,-21.793C-24.631,-27.497 -36.08,-24.622 -36.08,-17.617L-36.08,64.818C-36.08,66.803 -37.049,77.633 -25.308,74.358L-7.594,62.817C-2.783,59.69 0,55.042 0,50.136" style="fill:rgb(255,141,187);fill-rule:nonzero;"/>
    </g>
    <g transform="matrix(0.539412,0,0,0.539412,71.1702,173.917)">
        <path d="M0,-194.164C-6.095,-194.164 -11.034,-189.689 -11.034,-184.166L-11.034,-9.997C-11.034,-4.476 -6.095,0 0,0L14.013,0C20.106,0 25.046,-4.476 25.046,-9.997L25.046,-184.166C25.046,-189.689 20.106,-194.164 14.013,-194.164L0,-194.164Z" style="fill:rgb(237,30,121);fill-rule:nonzero;"/>
    </g>
    <g transform="matrix(0.539412,0,0,0.539412,114.682,134.22)">
        <path d="M0,-74.768L0,50.901C0,63.433 -11.213,73.594 -25.045,73.594C-31.14,73.594 -36.079,69.119 -36.079,63.597L-36.079,-74.768C-36.079,-80.29 -31.14,-84.765 -25.045,-84.765L-11.035,-84.765C-4.94,-84.765 0,-80.29 0,-74.768Z" style="fill:rgb(237,30,121);fill-rule:nonzero;"/>
    </g>
    <g transform="matrix(0.539412,0,0,0.539412,114.682,134.22)">
        <path d="M0,-74.768L0,50.901C0,63.433 -11.213,73.594 -25.045,73.594C-31.14,73.594 -36.079,69.119 -36.079,63.597L-36.079,-74.768C-36.079,-80.29 -31.14,-84.765 -25.045,-84.765L-11.035,-84.765C-4.94,-84.765 0,-80.29 0,-74.768Z" style="fill:rgb(237,30,121);fill-rule:nonzero;"/>
    </g>
    <g transform="matrix(0.539412,0,0,0.539412,125.222,98.6451)">
        <path d="M0,109.264L0,4.803C0,-4.459 10.597,-9.723 17.979,-4.13L29.294,4.445C33.623,7.725 36.08,12.322 36.08,17.134L36.08,93.197C36.08,100.508 31.422,107.297 23.77,111.139L14.456,115.816C8.142,118.987 0,115.295 0,109.264" style="fill:rgb(237,30,121);fill-rule:nonzero;"/>
    </g>
    <g transform="matrix(0.539412,0,0,0.539412,54.5035,10.2717)">
        <path d="M0,183.55L0,-0.003C0,-5.525 -4.94,-10 -11.034,-10L-25.046,-10C-31.141,-10 -36.08,-5.525 -36.08,-0.003L-36.08,183.55C-36.08,189.072 -31.141,193.55 -25.046,193.55L-11.034,193.55C-4.94,193.55 0,189.072 0,183.55" style="fill:rgb(237,30,121);fill-rule:nonzero;"/>
    </g>
    <g transform="matrix(0.539412,0,0,0.539412,35.2158,130.086)">
        <path d="M0,71.259L0,0.002C0,-5.52 4.939,-9.998 11.034,-9.998L25.045,-9.998C31.14,-9.998 36.079,-5.52 36.079,0.002L36.079,71.259C36.079,76.781 31.14,81.257 25.045,81.257L11.034,81.257C4.939,81.257 0,76.781 0,71.259" style="fill:rgb(237,30,121);fill-rule:nonzero;"/>
    </g>
    <g transform="matrix(0.539412,0,0,0.539412,114.682,33.3574)">
        <path d="M0,74.765L0,-20.005C0,-32.539 -11.213,-42.7 -25.045,-42.7C-31.14,-42.7 -36.079,-38.225 -36.079,-32.703L-36.079,74.765C-36.079,80.288 -31.14,84.765 -25.045,84.765L-11.035,84.765C-4.94,84.765 0,80.288 0,74.765Z" style="fill:rgb(255,141,187);fill-rule:nonzero;"/>
    </g>
</svg>
